<svg width="20px" height="20px" viewBox="0 0 48 48" xmlns="http://www.w3.org/2000/svg">
  <path fill="#EA4335" d="M24 9.5c3.35 0 6.33 1.15 8.68 3.41l6.49-6.49C34.16 2.36 29.41 0 24 0 14.94 0 7.02 5.16 2.81 12.64l7.55 5.84C12.33 12.24 17.7 9.5 24 9.5z"/>
  <path fill="#4285F4" d="M46.13 24.55c0-1.63-.15-3.2-.44-4.76H24v9.02h12.66c-.55 2.96-2.22 5.47-4.76 7.19l7.58 5.88C43.84 37.33 46.13 31.32 46.13 24.55z"/>
  <path fill="#FBBC05" d="M10.36 28.48A14.5 14.5 0 0 1 9.5 24c0-1.56.26-3.06.74-4.48l-7.55-5.84A23.87 23.87 0 0 0 0 24c0 3.82.9 7.42 2.48 10.58l7.88-6.1z"/>
  <path fill="#34A853" d="M24 48c6.54 0 12.03-2.15 16.03-5.86l-7.58-5.88c-2.11 1.42-4.84 2.26-8.45 2.26-6.3 0-11.67-2.74-14.64-6.98L2.48 34.58C6.69 42.06 14.61 48 24 48z"/>
</svg>
